<svg width="80" height="81" xmlns="http://www.w3.org/2000/svg">
 <title>icon</title>
 <g>
  <path d="m2,0c0,0 0.75565,2.01498 1,4c0.50378,4.09221 1,5 1,8c0,3 -1.91342,7.3806 0,12c0.5412,1.30656 1,4 1,6c0,2 0,6 0,8c0,4 0,8 0,11c0,3 0,6 0,8c0,3 1,6 1,9c0,3 0,6 0,8c0,2 0,4 0,5l0,1l0,1" stroke="#000" stroke-width="8" fill="none"/>
  <path d="m0,3c0,0 1,0 2,0c4,0 6,0 10,0c4,0 5.02676,-0.22975 6,0c2.17624,0.51375 2.0535,0.5405 4,1c2.17624,0.51375 2,1 3,1c2,0 1.69345,1.4588 3,2c0.92389,0.38269 4,1 4,1c0,1 2.38687,2.9176 5,4c0.92389,0.38269 2.69345,1.4588 4,2c0.92389,0.38269 1.82443,0.09789 3,2c0.52573,0.85065 1.29291,1.29289 2,2c0.70709,0.70711 1.4588,1.69344 2,3c0.76538,1.84776 2,3 2,5c0,2 1.48627,2.82375 2,5c0.4595,1.9465 0,4 0,5c0,2 0,4 0,5c0,3 -0.76538,4.15224 0,6c0.5412,1.30656 0.5412,1.69344 0,3c-0.76538,1.84776 -2,4 -4,6c0,0 -0.186,1.69255 -2,3c-1.14728,0.8269 -1.61731,4.07613 -2,5c-1.0824,2.61313 -2.85272,3.1731 -4,4c-1.814,1.30745 -3.4588,1.69344 -4,3c-0.38269,0.92387 -1,1 -1,1c-1,1 -3.02676,1.77025 -4,2c-2.17624,0.51375 -3,2 -4,2c-2,0 -3,1 -5,1c-1,0 -2,0 -3,0c-2,0 -3,0 -5,0c-1,0 -2,0 -2,0c-1,0 -2,0 -3,0c-1,0 -2,0 -4,0l-1,0" stroke="#000" stroke-width="8" fill="none"/>
  <path d="m55,48c1,0 2.49347,-0.12144 3,3c0.16019,0.98709 0,1 1,3c1,2 1,3 2,4c1,1 1,2 1,3c0,1 2,3 2,4c0,1 0.186,1.69255 2,3c1.14728,0.8269 0.29291,3.29289 1,4c0.70709,0.70711 0.61731,0.07613 1,1c0.5412,1.30656 2,1 2,0c0,-1 0,-2 0,-3c0,-1 1,-2 1,-2c0,-1 1,-1 1,-2c0,-1 1,-2 2,-2c1,0 1.29291,-1.29289 2,-2c1.41422,-1.41422 0,-2 0,-3c0,-1 0,-2 0,-3c0,0 -0.9021,-2.82443 1,-4c0.85065,-0.52573 1,0 2,-1c1,-1 1,-2 1,-3l0,0l0,0" stroke="#000" stroke-width="8" fill="none"/>
 </g>
</svg>